<mxfile host="app.diagrams.net" agent="Mozilla/5.0 (Windows NT 10.0; Win64; x64) AppleWebKit/537.36 (KHTML, like Gecko) Chrome/129.0.0.0 Safari/537.36" version="24.7.17">
  <diagram name="Страница — 1" id="Ma91BWil_ssSF-kNVNje">
    <mxGraphModel dx="1050" dy="565" grid="1" gridSize="10" guides="1" tooltips="1" connect="1" arrows="1" fold="1" page="1" pageScale="1" pageWidth="827" pageHeight="1169" math="0" shadow="0">
      <root>
        <mxCell id="0" />
        <mxCell id="1" parent="0" />
        <mxCell id="30KPaunEWp38u8MKHqbR-1" value="" style="whiteSpace=wrap;html=1;aspect=fixed;" parent="1" vertex="1">
          <mxGeometry x="80" y="120" width="340" height="340" as="geometry" />
        </mxCell>
        <mxCell id="30KPaunEWp38u8MKHqbR-2" value="Записаться на консультацию" style="rounded=0;whiteSpace=wrap;html=1;" parent="1" vertex="1">
          <mxGeometry x="200" y="290" width="120" height="60" as="geometry" />
        </mxCell>
        <mxCell id="30KPaunEWp38u8MKHqbR-3" value="Записаться на групповое занятие" style="rounded=0;whiteSpace=wrap;html=1;" parent="1" vertex="1">
          <mxGeometry x="200" y="210" width="120" height="60" as="geometry" />
        </mxCell>
        <mxCell id="30KPaunEWp38u8MKHqbR-5" value="" style="whiteSpace=wrap;html=1;aspect=fixed;" parent="1" vertex="1">
          <mxGeometry x="530" y="110" width="330" height="330" as="geometry" />
        </mxCell>
        <mxCell id="30KPaunEWp38u8MKHqbR-6" value="" style="endArrow=none;html=1;rounded=0;entryX=1;entryY=0.5;entryDx=0;entryDy=0;" parent="1" target="30KPaunEWp38u8MKHqbR-2" edge="1">
          <mxGeometry width="50" height="50" relative="1" as="geometry">
            <mxPoint x="480" y="560" as="sourcePoint" />
            <mxPoint x="570" y="330" as="targetPoint" />
            <Array as="points">
              <mxPoint x="480" y="320" />
            </Array>
          </mxGeometry>
        </mxCell>
        <mxCell id="30KPaunEWp38u8MKHqbR-8" value="Записаться на групповое занятие" style="rounded=0;whiteSpace=wrap;html=1;" parent="1" vertex="1">
          <mxGeometry x="200" y="210" width="120" height="60" as="geometry" />
        </mxCell>
        <mxCell id="30KPaunEWp38u8MKHqbR-9" value="Выбор из выпадающего меняю" style="rounded=0;whiteSpace=wrap;html=1;" parent="1" vertex="1">
          <mxGeometry x="580" y="130" width="230" height="60" as="geometry" />
        </mxCell>
        <mxCell id="30KPaunEWp38u8MKHqbR-10" value="Ваше имя" style="rounded=0;whiteSpace=wrap;html=1;" parent="1" vertex="1">
          <mxGeometry x="580" y="210" width="60" height="30" as="geometry" />
        </mxCell>
        <mxCell id="30KPaunEWp38u8MKHqbR-11" value="Телефон" style="rounded=0;whiteSpace=wrap;html=1;" parent="1" vertex="1">
          <mxGeometry x="580" y="255" width="70" height="30" as="geometry" />
        </mxCell>
        <mxCell id="30KPaunEWp38u8MKHqbR-12" value="Возраст ребенка" style="rounded=0;whiteSpace=wrap;html=1;" parent="1" vertex="1">
          <mxGeometry x="580" y="300" width="120" height="30" as="geometry" />
        </mxCell>
        <mxCell id="30KPaunEWp38u8MKHqbR-13" value="" style="endArrow=classic;html=1;rounded=0;exitX=1.003;exitY=0.623;exitDx=0;exitDy=0;exitPerimeter=0;entryX=-0.012;entryY=0.414;entryDx=0;entryDy=0;entryPerimeter=0;" parent="1" source="30KPaunEWp38u8MKHqbR-8" target="30KPaunEWp38u8MKHqbR-5" edge="1">
          <mxGeometry width="50" height="50" relative="1" as="geometry">
            <mxPoint x="520" y="380" as="sourcePoint" />
            <mxPoint x="570" y="330" as="targetPoint" />
          </mxGeometry>
        </mxCell>
        <mxCell id="30KPaunEWp38u8MKHqbR-14" value="Записаться" style="rounded=0;whiteSpace=wrap;html=1;" parent="1" vertex="1">
          <mxGeometry x="620" y="350" width="120" height="60" as="geometry" />
        </mxCell>
        <mxCell id="30KPaunEWp38u8MKHqbR-16" value="" style="endArrow=classic;html=1;rounded=0;exitX=0.999;exitY=0.545;exitDx=0;exitDy=0;exitPerimeter=0;" parent="1" source="30KPaunEWp38u8MKHqbR-5" edge="1">
          <mxGeometry width="50" height="50" relative="1" as="geometry">
            <mxPoint x="870" y="290" as="sourcePoint" />
            <mxPoint x="920" y="290" as="targetPoint" />
          </mxGeometry>
        </mxCell>
        <mxCell id="30KPaunEWp38u8MKHqbR-18" value="" style="whiteSpace=wrap;html=1;aspect=fixed;" parent="1" vertex="1">
          <mxGeometry x="920" y="110" width="320" height="320" as="geometry" />
        </mxCell>
        <mxCell id="30KPaunEWp38u8MKHqbR-19" value="Вы успешно записаны на группу.&lt;div&gt;По всем интересующим вопросам вы можете написать на наш номер +79265454154&lt;/div&gt;" style="rounded=0;whiteSpace=wrap;html=1;" parent="1" vertex="1">
          <mxGeometry x="1010" y="200" width="140" height="140" as="geometry" />
        </mxCell>
        <mxCell id="30KPaunEWp38u8MKHqbR-22" value="" style="endArrow=classic;html=1;rounded=0;" parent="1" target="30KPaunEWp38u8MKHqbR-23" edge="1">
          <mxGeometry width="50" height="50" relative="1" as="geometry">
            <mxPoint x="480" y="560" as="sourcePoint" />
            <mxPoint x="530" y="550" as="targetPoint" />
          </mxGeometry>
        </mxCell>
        <mxCell id="30KPaunEWp38u8MKHqbR-27" style="edgeStyle=orthogonalEdgeStyle;rounded=0;orthogonalLoop=1;jettySize=auto;html=1;exitX=1;exitY=0.5;exitDx=0;exitDy=0;entryX=0;entryY=0.5;entryDx=0;entryDy=0;" parent="1" source="30KPaunEWp38u8MKHqbR-23" target="30KPaunEWp38u8MKHqbR-25" edge="1">
          <mxGeometry relative="1" as="geometry" />
        </mxCell>
        <mxCell id="30KPaunEWp38u8MKHqbR-23" value="" style="rounded=0;whiteSpace=wrap;html=1;" parent="1" vertex="1">
          <mxGeometry x="530" y="460" width="230" height="200" as="geometry" />
        </mxCell>
        <mxCell id="30KPaunEWp38u8MKHqbR-24" value="Выберете специалиста" style="rounded=0;whiteSpace=wrap;html=1;" parent="1" vertex="1">
          <mxGeometry x="585" y="490" width="120" height="60" as="geometry" />
        </mxCell>
        <mxCell id="30KPaunEWp38u8MKHqbR-33" style="edgeStyle=orthogonalEdgeStyle;rounded=0;orthogonalLoop=1;jettySize=auto;html=1;exitX=1;exitY=0.5;exitDx=0;exitDy=0;entryX=0;entryY=0.5;entryDx=0;entryDy=0;" parent="1" source="30KPaunEWp38u8MKHqbR-25" target="30KPaunEWp38u8MKHqbR-31" edge="1">
          <mxGeometry relative="1" as="geometry" />
        </mxCell>
        <mxCell id="30KPaunEWp38u8MKHqbR-25" value="" style="rounded=0;whiteSpace=wrap;html=1;" parent="1" vertex="1">
          <mxGeometry x="810" y="460" width="230" height="200" as="geometry" />
        </mxCell>
        <mxCell id="30KPaunEWp38u8MKHqbR-28" value="Выберите доступную дату и время" style="rounded=0;whiteSpace=wrap;html=1;" parent="1" vertex="1">
          <mxGeometry x="827" y="470" width="200" height="30" as="geometry" />
        </mxCell>
        <mxCell id="30KPaunEWp38u8MKHqbR-29" value="Выпадающий список" style="rounded=0;whiteSpace=wrap;html=1;" parent="1" vertex="1">
          <mxGeometry x="585" y="560" width="120" height="60" as="geometry" />
        </mxCell>
        <mxCell id="30KPaunEWp38u8MKHqbR-30" value="1 ноября 13-30" style="rounded=0;whiteSpace=wrap;html=1;" parent="1" vertex="1">
          <mxGeometry x="827" y="525" width="93" height="35" as="geometry" />
        </mxCell>
        <mxCell id="30KPaunEWp38u8MKHqbR-31" value="" style="rounded=0;whiteSpace=wrap;html=1;" parent="1" vertex="1">
          <mxGeometry x="1070" y="460" width="230" height="200" as="geometry" />
        </mxCell>
        <mxCell id="30KPaunEWp38u8MKHqbR-34" value="Вы успешно записаны на ... дату и ...время&lt;div&gt;По всем интересующим вопросам вы можете написать на наш номер +79265454154&lt;br&gt;&lt;/div&gt;" style="rounded=0;whiteSpace=wrap;html=1;" parent="1" vertex="1">
          <mxGeometry x="1120" y="500" width="130" height="120" as="geometry" />
        </mxCell>
        <mxCell id="30KPaunEWp38u8MKHqbR-36" value="15 ноября 12-00" style="rounded=0;whiteSpace=wrap;html=1;" parent="1" vertex="1">
          <mxGeometry x="827" y="570" width="93" height="30" as="geometry" />
        </mxCell>
        <mxCell id="30KPaunEWp38u8MKHqbR-38" style="edgeStyle=orthogonalEdgeStyle;rounded=0;orthogonalLoop=1;jettySize=auto;html=1;exitX=0;exitY=1;exitDx=0;exitDy=0;" parent="1" source="30KPaunEWp38u8MKHqbR-1" target="30KPaunEWp38u8MKHqbR-1" edge="1">
          <mxGeometry relative="1" as="geometry" />
        </mxCell>
      </root>
    </mxGraphModel>
  </diagram>
</mxfile>
